<?xml version="1.0" encoding="UTF-8" standalone="no"?>
<!-- Created with Inkscape (http://www.inkscape.org/) -->

<svg
   version="1.1"
   id="svg7356"
   width="880"
   height="880"
   viewBox="0 0 880 880"
   sodipodi:docname="mountain-resort-vector-publicdomain.svg"
   inkscape:version="1.2 (dc2aedaf03, 2022-05-15)"
   xmlns:inkscape="http://www.inkscape.org/namespaces/inkscape"
   xmlns:sodipodi="http://sodipodi.sourceforge.net/DTD/sodipodi-0.dtd"
   xmlns="http://www.w3.org/2000/svg"
   xmlns:svg="http://www.w3.org/2000/svg">
  <defs
     id="defs7360">
    <clipPath
       clipPathUnits="userSpaceOnUse"
       id="clipPath7386">
      <path
         d="M 0,660 H 660 V 0 H 0 Z"
         id="path7384" />
    </clipPath>
    <clipPath
       clipPathUnits="userSpaceOnUse"
       id="clipPath7534">
      <path
         d="m 599.422,61.507 0.155,0.002 -0.009,0.37 c -0.047,-0.127 -0.1,-0.247 -0.146,-0.372"
         id="path7532" />
    </clipPath>
    <clipPath
       clipPathUnits="userSpaceOnUse"
       id="clipPath7542">
      <path
         d="m 599.913,62.405 h 0.467 v -0.467 h -0.467 z"
         id="path7540" />
    </clipPath>
    <clipPath
       clipPathUnits="userSpaceOnUse"
       id="clipPath7552">
      <path
         d="m 599.91273,62.405085 h 0.15591 v -0.372206 h -0.15591 z"
         id="path7550" />
    </clipPath>
    <linearGradient
       x1="0"
       y1="0"
       x2="1"
       y2="0"
       gradientUnits="userSpaceOnUse"
       gradientTransform="matrix(0.1556,0,0,-0.1556,599.91225,62.218855)"
       spreadMethod="pad"
       id="linearGradient7558">
      <stop
         style="stop-opacity:1;stop-color:#ffffff"
         offset="0"
         id="stop7554" />
      <stop
         style="stop-opacity:1;stop-color:#231f20"
         offset="1"
         id="stop7556" />
    </linearGradient>
  </defs>
  <sodipodi:namedview
     id="namedview7358"
     pagecolor="#ffffff"
     bordercolor="#000000"
     borderopacity="0.25"
     inkscape:showpageshadow="2"
     inkscape:pageopacity="0.0"
     inkscape:pagecheckerboard="0"
     inkscape:deskcolor="#d1d1d1"
     showgrid="false"
     inkscape:zoom="0.95113636"
     inkscape:cx="441.05137"
     inkscape:cy="440.52569"
     inkscape:window-width="1920"
     inkscape:window-height="1017"
     inkscape:window-x="-8"
     inkscape:window-y="-8"
     inkscape:window-maximized="1"
     inkscape:current-layer="g7364">
    <inkscape:page
       x="0"
       y="0"
       id="page7362"
       width="880"
       height="880" />
  </sodipodi:namedview>
  <g
     id="g7364"
     inkscape:groupmode="layer"
     inkscape:label="Page 1"
     transform="matrix(1.3333333,0,0,-1.3333333,0,880)">
    <path
       d="M 0,0 H 660 V 660 H 0 Z"
       style="fill:#a5c9ed;fill-opacity:1;fill-rule:nonzero;stroke:none"
       id="path7366" />
    <g
       id="g7368"
       transform="translate(519.6963,557.499)">
      <path
         d="m 0,0 65.374,-113.232 65.375,-113.232 H 0 -130.75 l 65.375,113.232 z"
         style="fill:#c6def7;fill-opacity:1;fill-rule:evenodd;stroke:none"
         id="path7370" />
    </g>
    <g
       id="g7372"
       transform="translate(161.478,507.7983)">
      <path
         d="M 0,0 65.375,-113.232 130.75,-226.464 H 0 -130.749 l 65.374,113.232 z"
         style="fill:#c6def7;fill-opacity:1;fill-rule:evenodd;stroke:none"
         id="path7374" />
    </g>
    <g
       id="g7376"
       transform="translate(220.5522,354.9465)">
      <path
         d="m 0,0 h -220.552 v -354.947 h 660 V 0 H 105.034 L 52.516,90.96 Z"
         style="fill:#f5f8fa;fill-opacity:1;fill-rule:nonzero;stroke:none"
         id="path7378" />
    </g>
    <g
       id="g7380">
      <g
         id="g7382"
         clip-path="url(#clipPath7386)">
        <g
           id="g7388"
           transform="translate(599.7793,-0.7529)">
          <path
             d="m 0,0 h -381.708 c -13.937,24.956 -29.578,79.846 -37.959,105.537 l -3.523,10.894 c -23.438,77.591 99.155,83.015 149.966,87.569 16.913,1.518 33.089,3.02 49.957,5.225 33.825,5.533 69.499,11.329 96.866,-12.356 5.798,-17.075 -21.218,-13.936 -33.128,-13.485 -27.172,1.026 -300.22,15.632 -186.236,-63.748 C -301.234,90.743 -216.671,72.249 -161.97,54.944 -116.459,40.549 -51.914,22.14 0,0"
             style="fill:#d7dee3;fill-opacity:1;fill-rule:evenodd;stroke:none"
             id="path7390" />
        </g>
        <g
           id="g7392"
           transform="translate(444.9512,375.7393)">
          <path
             d="m 0,0 8.24,-14.271 8.239,-14.272 H 3.649 l 8.015,-13.881 c 3.887,-6.733 7.774,-13.468 11.664,-20.201 H 5.652 L 15.087,-78.968 30.175,-105.1 H 0 -30.175 l 15.088,26.132 9.436,16.343 h -17.675 c 3.887,6.733 7.775,13.468 11.662,20.201 l 8.015,13.881 H -16.48 l 8.24,14.272 z"
             style="fill:#689396;fill-opacity:1;fill-rule:evenodd;stroke:none"
             id="path7394" />
        </g>
        <g
           id="g7396"
           transform="translate(444.9512,375.7393)">
          <path
             d="M 0,0 9.58,-23.051 H -0.995 L 9.224,-56.308 H -0.816 L 7.071,-105.1 H 30.175 L 5.652,-62.625 H 23.511 L 3.649,-28.542 h 12.83 z"
             style="fill:#4b777a;fill-opacity:1;fill-rule:evenodd;stroke:none"
             id="path7398" />
        </g>
        <path
           d="m 171.642,215.876 h 191.403 v 90.309 H 171.642 Z"
           style="fill:#c4ab93;fill-opacity:1;fill-rule:evenodd;stroke:none"
           id="path7400" />
        <path
           d="m 167.172,204.833 h 200.343 v 13.146 H 167.172 Z"
           style="fill:#947f69;fill-opacity:1;fill-rule:evenodd;stroke:none"
           id="path7402" />
        <path
           d="m 199.248,225.47 h 136.191 v 69.147 H 199.248 Z"
           style="fill:#947f69;fill-opacity:1;fill-rule:evenodd;stroke:none"
           id="path7404" />
        <path
           d="m 301.601,290.804 h 30.024 v -61.518 h -30.024 z m -32.957,0 H 299 v -61.518 h -30.356 z m -32.957,0 h 30.356 v -61.518 h -30.356 z m -32.624,0 h 30.023 v -61.518 h -30.023 z"
           style="fill:#c6def7;fill-opacity:1;fill-rule:evenodd;stroke:none"
           id="path7406" />
        <path
           d="m 233.086,288.177 h -30.023 v 2.627 h 30.023 z m 32.957,0 h -30.356 v 2.627 h 30.356 z m 32.957,0 h -30.356 v 2.627 H 299 Z m 32.625,0 h -30.024 v 2.627 h 30.024 z"
           style="fill:#86b0db;fill-opacity:1;fill-rule:evenodd;stroke:none"
           id="path7408" />
        <path
           d="m 175.886,280.619 h 11.019 v 4.075 h -11.019 z"
           style="fill:#947f69;fill-opacity:1;fill-rule:evenodd;stroke:none"
           id="path7410" />
        <path
           d="m 180.84,275.032 h 11.019 v 4.075 H 180.84 Z"
           style="fill:#947f69;fill-opacity:1;fill-rule:evenodd;stroke:none"
           id="path7412" />
        <path
           d="m 187.335,269.38 h 11.019 v 4.075 h -11.019 z"
           style="fill:#947f69;fill-opacity:1;fill-rule:evenodd;stroke:none"
           id="path7414" />
        <path
           d="m 174.618,269.38 h 11.018 v 4.075 h -11.018 z"
           style="fill:#947f69;fill-opacity:1;fill-rule:evenodd;stroke:none"
           id="path7416" />
        <path
           d="m 344.376,260.374 h 11.017 v 4.076 h -11.017 z"
           style="fill:#947f69;fill-opacity:1;fill-rule:evenodd;stroke:none"
           id="path7418" />
        <path
           d="m 350.87,254.723 h 11.019 v 4.075 H 350.87 Z"
           style="fill:#947f69;fill-opacity:1;fill-rule:evenodd;stroke:none"
           id="path7420" />
        <path
           d="m 338.151,254.723 h 11.017 v 4.075 h -11.017 z"
           style="fill:#947f69;fill-opacity:1;fill-rule:evenodd;stroke:none"
           id="path7422" />
        <path
           d="m 344.922,295.015 h 11.02 v 4.075 h -11.02 z"
           style="fill:#947f69;fill-opacity:1;fill-rule:evenodd;stroke:none"
           id="path7424" />
        <path
           d="m 338.699,289.362 h 11.019 v 4.075 h -11.019 z"
           style="fill:#947f69;fill-opacity:1;fill-rule:evenodd;stroke:none"
           id="path7426" />
        <path
           d="m 182.176,232.176 h 11.019 v 4.075 h -11.019 z"
           style="fill:#947f69;fill-opacity:1;fill-rule:evenodd;stroke:none"
           id="path7428" />
        <path
           d="m 175.953,226.523 h 11.019 v 4.074 h -11.019 z"
           style="fill:#947f69;fill-opacity:1;fill-rule:evenodd;stroke:none"
           id="path7430" />
        <path
           d="m 344.416,225.144 h 11.02 v 4.075 h -11.02 z"
           style="fill:#947f69;fill-opacity:1;fill-rule:evenodd;stroke:none"
           id="path7432" />
        <path
           d="m 260.79,297.512 h 11.018 v 4.075 H 260.79 Z"
           style="fill:#947f69;fill-opacity:1;fill-rule:evenodd;stroke:none"
           id="path7434" />
        <path
           d="m 288.658,297.644 h 11.02 v 4.076 h -11.02 z"
           style="fill:#947f69;fill-opacity:1;fill-rule:evenodd;stroke:none"
           id="path7436" />
        <g
           id="g7438"
           transform="translate(267.3433,369.814)">
          <path
             d="m 0,0 54.757,-32.771 54.756,-32.771 H 0 -109.513 l 54.758,32.771 z"
             style="fill:#947f69;fill-opacity:1;fill-rule:evenodd;stroke:none"
             id="path7440" />
        </g>
        <g
           id="g7442"
           transform="translate(267.3433,369.814)">
          <path
             d="m 0,0 54.758,-32.771 54.755,-32.771 H 94.869 L 0,-8.765 -94.869,-65.542 h -14.644 l 54.757,32.771 z"
             style="fill:#826d57;fill-opacity:1;fill-rule:evenodd;stroke:none"
             id="path7444" />
        </g>
        <g
           id="g7446"
           transform="translate(155.2881,308.5225)">
          <path
             d="M 0,0 112.055,67.063 224.111,0 219.027,-8.5 112.055,55.52 5.085,-8.5 Z"
             style="fill:#3d3329;fill-opacity:1;fill-rule:evenodd;stroke:none"
             id="path7448" />
        </g>
        <path
           d="m 316.405,184.215 h 174.344 v 82.261 H 316.405 Z"
           style="fill:#c4ab93;fill-opacity:1;fill-rule:evenodd;stroke:none"
           id="path7450" />
        <path
           d="M 312.333,174.156 H 494.819 V 186.13 H 312.333 Z"
           style="fill:#947f69;fill-opacity:1;fill-rule:evenodd;stroke:none"
           id="path7452" />
        <path
           d="m 341.551,192.954 h 124.053 v 62.984 H 341.551 Z"
           style="fill:#947f69;fill-opacity:1;fill-rule:evenodd;stroke:none"
           id="path7454" />
        <path
           d="M 434.781,252.464 H 462.13 V 196.43 h -27.349 z m -30.019,0 h 27.651 V 196.43 h -27.651 z m -30.02,0 h 27.65 V 196.43 h -27.65 z m -29.716,0 h 27.348 V 196.43 h -27.348 z"
           style="fill:#c6def7;fill-opacity:1;fill-rule:evenodd;stroke:none"
           id="path7456" />
        <path
           d="m 372.374,250.07 h -27.348 v 2.394 h 27.348 z m 30.019,0 h -27.65 v 2.394 h 27.65 z m 30.02,0 h -27.651 v 2.394 h 27.651 z m 29.717,0 h -27.349 v 2.394 h 27.349 z"
           style="fill:#86b0db;fill-opacity:1;fill-rule:evenodd;stroke:none"
           id="path7458" />
        <path
           d="m 320.273,243.186 h 10.035 v 3.712 h -10.035 z"
           style="fill:#947f69;fill-opacity:1;fill-rule:evenodd;stroke:none"
           id="path7460" />
        <path
           d="m 324.785,238.099 h 10.037 v 3.712 h -10.037 z"
           style="fill:#947f69;fill-opacity:1;fill-rule:evenodd;stroke:none"
           id="path7462" />
        <path
           d="m 330.701,232.948 h 10.037 v 3.712 h -10.037 z"
           style="fill:#947f69;fill-opacity:1;fill-rule:evenodd;stroke:none"
           id="path7464" />
        <path
           d="m 319.116,232.948 h 10.037 v 3.712 h -10.037 z"
           style="fill:#947f69;fill-opacity:1;fill-rule:evenodd;stroke:none"
           id="path7466" />
        <path
           d="m 473.743,224.746 h 10.036 v 3.712 h -10.036 z"
           style="fill:#947f69;fill-opacity:1;fill-rule:evenodd;stroke:none"
           id="path7468" />
        <path
           d="m 479.66,219.599 h 10.035 v 3.712 H 479.66 Z"
           style="fill:#947f69;fill-opacity:1;fill-rule:evenodd;stroke:none"
           id="path7470" />
        <path
           d="m 468.074,219.599 h 10.035 v 3.712 h -10.035 z"
           style="fill:#947f69;fill-opacity:1;fill-rule:evenodd;stroke:none"
           id="path7472" />
        <path
           d="m 474.242,256.299 h 10.036 v 3.713 h -10.036 z"
           style="fill:#947f69;fill-opacity:1;fill-rule:evenodd;stroke:none"
           id="path7474" />
        <path
           d="m 468.573,251.151 h 10.037 v 3.712 h -10.037 z"
           style="fill:#947f69;fill-opacity:1;fill-rule:evenodd;stroke:none"
           id="path7476" />
        <path
           d="m 326.002,199.062 h 10.036 v 3.712 h -10.036 z"
           style="fill:#947f69;fill-opacity:1;fill-rule:evenodd;stroke:none"
           id="path7478" />
        <path
           d="m 320.334,193.912 h 10.035 v 3.712 h -10.035 z"
           style="fill:#947f69;fill-opacity:1;fill-rule:evenodd;stroke:none"
           id="path7480" />
        <path
           d="m 473.781,192.656 h 10.036 v 3.712 h -10.036 z"
           style="fill:#947f69;fill-opacity:1;fill-rule:evenodd;stroke:none"
           id="path7482" />
        <path
           d="m 397.606,258.574 h 10.036 v 3.712 h -10.036 z"
           style="fill:#947f69;fill-opacity:1;fill-rule:evenodd;stroke:none"
           id="path7484" />
        <path
           d="m 422.993,258.694 h 10.036 v 3.712 h -10.036 z"
           style="fill:#947f69;fill-opacity:1;fill-rule:evenodd;stroke:none"
           id="path7486" />
        <g
           id="g7488"
           transform="translate(403.5771,324.4316)">
          <path
             d="M 0,0 49.877,-29.85 99.753,-59.699 H 0 -99.751 l 49.875,29.849 z"
             style="fill:#947f69;fill-opacity:1;fill-rule:evenodd;stroke:none"
             id="path7490" />
        </g>
        <g
           id="g7492"
           transform="translate(403.5771,324.4316)">
          <path
             d="M 0,0 49.877,-29.85 99.753,-59.7 H 86.413 L 0,-7.983 -86.412,-59.7 h -13.339 l 49.875,29.85 z"
             style="fill:#826d57;fill-opacity:1;fill-rule:evenodd;stroke:none"
             id="path7494" />
        </g>
        <g
           id="g7496"
           transform="translate(301.5088,268.6035)">
          <path
             d="M 0,0 102.068,61.086 204.136,0 199.506,-7.743 102.068,50.571 4.632,-7.743 Z"
             style="fill:#3d3329;fill-opacity:1;fill-rule:evenodd;stroke:none"
             id="path7498" />
        </g>
        <g
           id="g7500"
           transform="translate(147.9292,311.4766)">
          <path
             d="M 0,0 10.775,-18.661 21.55,-37.325 H 4.772 l 10.481,-18.154 c 5.084,-8.804 10.167,-17.609 15.251,-26.416 H 7.391 l 12.339,-21.371 19.729,-34.171 H 0 -39.458 l 19.729,34.171 12.339,21.371 h -23.114 c 5.084,8.807 10.167,17.612 15.252,26.416 l 10.479,18.154 h -16.776 l 10.774,18.664 z"
             style="fill:#689396;fill-opacity:1;fill-rule:evenodd;stroke:none"
             id="path7502" />
        </g>
        <g
           id="g7504"
           transform="translate(147.9292,311.4766)">
          <path
             d="M 0,0 12.529,-30.143 H -1.302 l 13.363,-43.49 H -1.068 L 9.247,-137.437 H 39.459 L 7.391,-81.895 H 30.745 L 4.772,-37.325 H 21.55 Z"
             style="fill:#4b777a;fill-opacity:1;fill-rule:evenodd;stroke:none"
             id="path7506" />
        </g>
        <g
           id="g7508"
           transform="translate(101.6875,337.8462)">
          <path
             d="M 0,0 14.183,-24.565 28.365,-49.13 H 6.282 l 13.795,-23.894 c 6.692,-11.591 13.382,-23.183 20.075,-34.773 H 9.729 l 16.241,-28.13 25.969,-44.981 H 0 -51.938 l 25.968,44.981 16.241,28.13 h -30.423 c 6.692,11.59 13.382,23.182 20.075,34.773 l 13.794,23.894 h -22.083 l 14.182,24.565 z"
             style="fill:#95c1c4;fill-opacity:1;fill-rule:evenodd;stroke:none"
             id="path7510" />
        </g>
        <g
           id="g7512"
           transform="translate(101.6875,337.8462)">
          <path
             d="M 0,0 16.492,-39.677 H -1.714 L 15.875,-96.922 H -1.406 l 13.577,-83.986 H 51.939 L 9.728,-107.797 H 40.469 L 6.282,-49.13 h 22.084 z"
             style="fill:#77a5a8;fill-opacity:1;fill-rule:evenodd;stroke:none"
             id="path7514" />
        </g>
        <g
           id="g7516"
           transform="translate(510.2559,322.4727)">
          <path
             d="M 0,0 12.505,-21.657 25.008,-43.314 H 5.539 L 17.7,-64.378 c 5.9,-10.219 11.798,-20.437 17.698,-30.656 H 8.578 l 14.317,-24.799 22.895,-39.655 H 0 -45.788 l 22.893,39.655 14.319,24.799 h -26.821 c 5.899,10.219 11.797,20.437 17.699,30.656 l 12.161,21.064 h -19.47 l 12.504,21.657 z"
             style="fill:#689396;fill-opacity:1;fill-rule:evenodd;stroke:none"
             id="path7518" />
        </g>
        <g
           id="g7520"
           transform="translate(510.2559,322.4727)">
          <path
             d="M 0,0 14.539,-34.979 H -1.511 L 13.996,-85.447 H -1.239 l 11.97,-74.041 H 45.79 L 8.578,-95.034 h 27.1 l -30.139,51.72 h 19.469 z"
             style="fill:#4b777a;fill-opacity:1;fill-rule:evenodd;stroke:none"
             id="path7522" />
        </g>
        <g
           id="g7524"
           transform="translate(47.4424,604.7319)">
          <path
             d="m 0,0 c 1.554,0 2.813,-1.259 2.813,-2.813 0,-1.554 -1.259,-2.812 -2.813,-2.812 -1.554,0 -2.813,1.258 -2.813,2.812 C -2.813,-1.259 -1.554,0 0,0 m 14.535,-71.267 c 0.777,0 1.406,-0.63 1.406,-1.407 0,-0.777 -0.629,-1.407 -1.406,-1.407 -0.777,0 -1.407,0.63 -1.407,1.407 0,0.777 0.63,1.407 1.407,1.407 m 66.58,53.451 c 2.847,0 5.157,-2.309 5.157,-5.157 0,-2.848 -2.31,-5.157 -5.157,-5.157 -2.849,0 -5.157,2.309 -5.157,5.157 0,2.848 2.308,5.157 5.157,5.157 m 127.063,-9.377 c 5.18,0 9.379,-4.199 9.379,-9.379 0,-5.178 -4.199,-9.377 -9.379,-9.377 -5.177,0 -9.378,4.199 -9.378,9.377 0,5.18 4.201,9.379 9.378,9.379 m 73.145,-69.393 c 3.626,0 6.565,-2.94 6.565,-6.565 0,-3.625 -2.939,-6.564 -6.565,-6.564 -3.625,0 -6.563,2.939 -6.563,6.564 0,3.625 2.938,6.565 6.563,6.565 M 178.171,-128.47 c 2.589,0 4.689,-2.099 4.689,-4.689 0,-2.589 -2.1,-4.688 -4.689,-4.688 -2.59,0 -4.689,2.099 -4.689,4.688 0,2.59 2.099,4.689 4.689,4.689 m 121.436,97.525 c 2.332,0 4.222,-1.889 4.222,-4.22 0,-2.331 -1.89,-4.22 -4.222,-4.22 -2.329,0 -4.218,1.889 -4.218,4.22 0,2.331 1.889,4.22 4.218,4.22 m 95.652,21.569 c 5.436,0 9.846,-4.409 9.846,-9.847 0,-5.439 -4.41,-9.846 -9.846,-9.846 -5.44,0 -9.848,4.407 -9.848,9.846 0,5.438 4.408,9.847 9.848,9.847 m 122.375,-3.751 c 3.625,0 6.563,-2.939 6.563,-6.565 0,-3.625 -2.938,-6.563 -6.563,-6.563 -3.626,0 -6.565,2.938 -6.565,6.563 0,3.626 2.939,6.565 6.565,6.565 m 22.975,-93.775 c 3.884,0 7.034,-3.148 7.034,-7.033 0,-3.885 -3.15,-7.033 -7.034,-7.033 -3.884,0 -7.033,3.148 -7.033,7.033 0,3.885 3.149,7.033 7.033,7.033 m -37.979,-93.775 c 5.697,0 10.315,-4.617 10.315,-10.315 0,-5.696 -4.618,-10.315 -10.315,-10.315 -5.696,0 -10.316,4.619 -10.316,10.315 0,5.698 4.62,10.315 10.316,10.315 m 27.663,-102.213 c 2.85,0 5.159,-2.309 5.159,-5.157 0,-2.849 -2.309,-5.158 -5.159,-5.158 -2.848,0 -5.157,2.309 -5.157,5.158 0,2.848 2.309,5.157 5.157,5.157 m 27.195,-99.4 c -1.813,0 -3.281,-1.47 -3.281,-3.282 0,-1.813 1.468,-3.283 3.281,-3.283 1.812,0 3.282,1.47 3.282,3.283 0,1.812 -1.47,3.282 -3.282,3.282 M 503.1,-504.505 c -3.885,0 -7.034,-3.149 -7.034,-7.033 0,-3.884 3.149,-7.033 7.034,-7.033 3.883,0 7.033,3.149 7.033,7.033 0,3.884 -3.15,7.033 -7.033,7.033 m -300.699,18.656 c -2.303,0 -4.172,-1.867 -4.172,-4.17 0,-2.304 1.869,-4.172 4.172,-4.172 2.303,0 4.171,1.868 4.171,4.172 0,2.303 -1.868,4.17 -4.171,4.17 m -104.23,146.192 c 4.249,0 7.695,-3.445 7.695,-7.695 0,-4.251 -3.446,-7.695 -7.695,-7.695 -4.251,0 -7.696,3.444 -7.696,7.695 0,4.25 3.445,7.695 7.696,7.695 m 54.837,77.089 c 2.159,0 3.908,-1.749 3.908,-3.907 0,-2.158 -1.749,-3.907 -3.908,-3.907 -2.157,0 -3.907,1.749 -3.907,3.907 0,2.158 1.75,3.907 3.907,3.907 m 126.932,-77.431 c 2.341,0 4.243,-1.9 4.243,-4.244 0,-2.342 -1.902,-4.243 -4.243,-4.243 -2.344,0 -4.243,1.901 -4.243,4.243 0,2.344 1.899,4.244 4.243,4.244 m 47.8,227.47 c 1.813,0 3.282,-1.469 3.282,-3.281 0,-1.813 -1.469,-3.283 -3.282,-3.283 -1.81,0 -3.282,1.47 -3.282,3.283 0,1.812 1.472,3.281 3.282,3.281 m 16.411,-52.513 c 3.107,0 5.626,-2.519 5.626,-5.626 0,-3.108 -2.519,-5.627 -5.626,-5.627 -3.107,0 -5.627,2.519 -5.627,5.627 0,3.107 2.52,5.626 5.627,5.626 m 7.502,-52.514 c 5.179,0 9.378,-4.198 9.378,-9.377 0,-5.179 -4.199,-9.376 -9.378,-9.376 -5.179,0 -9.377,4.197 -9.377,9.376 0,5.179 4.198,9.377 9.377,9.377 m -11.025,-83.826 c 3.525,0 6.381,-2.857 6.381,-6.38 0,-3.525 -2.856,-6.381 -6.381,-6.381 -3.523,0 -6.38,2.856 -6.38,6.381 0,3.523 2.857,6.38 6.38,6.38 m 35.876,-67.151 c 2.848,0 5.157,-2.308 5.157,-5.157 0,-2.849 -2.309,-5.157 -5.157,-5.157 -2.85,0 -5.158,2.308 -5.158,5.157 0,2.849 2.308,5.157 5.158,5.157 M 14.535,-210.992 c 2.848,0 5.158,-2.308 5.158,-5.157 0,-2.849 -2.31,-5.158 -5.158,-5.158 -2.849,0 -5.159,2.309 -5.159,5.158 0,2.849 2.31,5.157 5.159,5.157 m 9.846,46.887 c 3.107,0 5.626,-2.518 5.626,-5.625 0,-3.108 -2.519,-5.627 -5.626,-5.627 -3.107,0 -5.626,2.519 -5.626,5.627 0,3.107 2.519,5.625 5.626,5.625 m 42.667,44.074 c 1.813,0 3.282,-1.468 3.282,-3.281 0,-1.812 -1.469,-3.282 -3.282,-3.282 -1.812,0 -3.282,1.47 -3.282,3.282 0,1.813 1.47,3.281 3.282,3.281 m 23.912,-94.712 c 2.59,0 4.689,-2.098 4.689,-4.689 0,-2.589 -2.099,-4.688 -4.689,-4.688 -2.589,0 -4.688,2.099 -4.688,4.688 0,2.591 2.099,4.689 4.688,4.689 M -4.931,-323.398 c 6.508,0 11.783,-5.275 11.783,-11.783 0,-6.508 -5.275,-11.783 -11.783,-11.783 -6.507,0 -11.782,5.275 -11.782,11.783 0,6.508 5.275,11.783 11.782,11.783 m 29.312,-216.741 c 2.59,0 4.688,-2.099 4.688,-4.689 0,-2.589 -2.098,-4.688 -4.688,-4.688 -2.589,0 -4.688,2.099 -4.688,4.688 0,2.59 2.099,4.689 4.688,4.689 m 46.418,31.884 c 1.295,0 2.345,-1.05 2.345,-2.344 0,-1.295 -1.05,-2.345 -2.345,-2.345 -1.294,0 -2.344,1.05 -2.344,2.345 0,1.294 1.05,2.344 2.344,2.344 m 79.708,-37.511 c 5.957,0 10.785,-4.828 10.785,-10.783 0,-5.957 -4.828,-10.785 -10.785,-10.785 -5.955,0 -10.783,4.828 -10.783,10.785 0,5.955 4.828,10.783 10.783,10.783 m 132.69,-15.94 c 5.697,0 10.316,-4.62 10.316,-10.315 0,-5.698 -4.619,-10.316 -10.316,-10.316 -5.696,0 -10.315,4.618 -10.315,10.316 0,5.695 4.619,10.315 10.315,10.315 m 65.077,63.295 c 4.973,0 9.005,-4.032 9.005,-9.004 0,-4.975 -4.032,-9.007 -9.005,-9.007 -4.972,0 -9.005,4.032 -9.005,9.007 0,4.972 4.033,9.004 9.005,9.004 m 61.051,-44.541 c 1.812,0 3.281,-1.469 3.281,-3.283 0,-1.811 -1.469,-3.281 -3.281,-3.281 -1.813,0 -3.283,1.47 -3.283,3.281 0,1.814 1.47,3.283 3.283,3.283 m 67.701,-33.151 c 2.77,0 5.014,-2.245 5.014,-5.014 0,-2.768 -2.244,-5.013 -5.014,-5.013 -2.768,0 -5.012,2.245 -5.012,5.013 0,2.769 2.244,5.014 5.012,5.014 m 96.405,39.716 c -0.778,0 -1.408,-0.631 -1.408,-1.407 0,-0.778 0.63,-1.408 1.408,-1.408 0.776,0 1.407,0.63 1.407,1.408 0,0.776 -0.631,1.407 -1.407,1.407 m -38.917,97.524 c 2.072,0 3.751,-1.679 3.751,-3.752 0,-2.069 -1.679,-3.75 -3.751,-3.75 -2.072,0 -3.752,1.681 -3.752,3.75 0,2.073 1.68,3.752 3.752,3.752 M -8.909,25.319 c 2.848,0 5.158,-2.309 5.158,-5.157 0,-2.848 -2.31,-5.157 -5.158,-5.157 -2.848,0 -5.157,2.309 -5.157,5.157 0,2.848 2.309,5.157 5.157,5.157"
             style="fill:#ffffff;fill-opacity:1;fill-rule:evenodd;stroke:none"
             id="path7526" />
        </g>
      </g>
    </g>
    <g
       id="g7528">
      <g
         id="g7530"
         clip-path="url(#clipPath7534)">
        <g
           id="g7536">
          <g
             id="g7538"
             clip-path="url(#clipPath7542)">
            <g
               id="g7544">
              <g
                 id="g7546">
                <g
                   id="g7548"
                   clip-path="url(#clipPath7552)">
                  <path
                     d="m 599.913,62.405 h 0.467 v -0.467 h -0.467 z"
                     style="fill:url(#linearGradient7558);stroke:none"
                     id="path7560" />
                </g>
              </g>
            </g>
          </g>
        </g>
      </g>
    </g>
  </g>
</svg>
